<?xml version="1.0" encoding="utf-8"?>
<!-- Svg Vector Icons : http://www.onlinewebfonts.com/icon -->
<!DOCTYPE svg PUBLIC "-//W3C//DTD SVG 1.1//EN" "http://www.w3.org/Graphics/SVG/1.1/DTD/svg11.dtd">
<svg version="1.1" xmlns="http://www.w3.org/2000/svg" xmlns:xlink="http://www.w3.org/1999/xlink" x="0px" y="0px" viewBox="0 0 1000 1000" enable-background="new 0 0 1000 1000" xml:space="preserve">
<metadata> Svg Vector Icons : http://www.onlinewebfonts.com/icon </metadata>
<g><g transform="translate(0.000000,453.000000) scale(0.100000,-0.100000)"><path d="M3491.3,3914.5c-920-40.8-1783.5-147.8-2351.5-291.7c-583.5-145.9-960.8-369.5-1025-604.9c-11.7-48.6-17.5-299.5-13.6-682.7l5.8-606.8l52.5-91.4c62.2-103.1,157.5-190.6,315.1-284c112.8-70,408.4-202.3,536.8-241.2l75.9-25.3l-3.9-608.8l-3.9-610.7l-233.4-81.7C470.7-347,258.7-479.2,151.8-650.4c-44.7-72-44.7-75.9-44.7-723.5v-651.6l54.5-93.4c58.3-99.2,194.5-217.8,359.8-309.3c60.3-35,95.3-66.1,87.5-79.7c-7.8-11.7-11.7-315.1-9.7-671l1.9-649.6l50.6-83.6c75.9-130.3,212-235.3,466.8-359.8c334.5-163.4,604.9-247,1137.8-357.9c2022.8-414.3,5093.9-282,6465.1,278.1c355.9,145.9,626.3,355.9,673,523.2c27.2,99.2,25.3,1215.6-1.9,1314.8c-29.2,105-206.2,278.1-373.4,361.8c-99.2,52.5-126.4,75.9-116.7,97.2c7.8,15.6,17.5,287.9,21.4,604.9l5.8,575.7l215.9,85.6c381.2,149.8,616.6,311.2,704.1,488.2l50.6,101.1v622.4c0,591.3-1.9,626.3-40.8,706c-83.6,171.2-373.4,350.1-772.2,474.6c-167.3,52.5-198.4,68.1-184.8,93.4c25.3,52.5,31.1,1184.5,5.8,1299.2c-108.9,497.9-1332.3,826.6-3442.6,920C4965.6,3937.8,4006.7,3937.8,3491.3,3914.5z M6058.7,3556.6c1209.8-95.3,2174.5-293.7,2454.6-507.6c175-134.2-11.7-295.6-538.8-468.7c-1781.6-577.7-5154.2-577.7-6930,2c-355.9,116.7-575.7,241.2-602.9,342.3c-72,276.2,1363.4,583.5,3117.8,669.1C3962,3613,5673.6,3587.7,6058.7,3556.6z M842.2,2300.1l72-25.3V1880c0-217.8-3.9-394.8-9.7-394.8c-42.8,0-346.2,163.4-402.6,217.8l-73.9,68.1v361.8v363.7l171.2-85.6C692.5,2364.3,801.4,2315.7,842.2,2300.1z M8589.1,1786.7c-17.5-60.3-377.3-282-460.9-282c-9.7,0-17.5,165.3-17.5,389c0,297.6,5.8,389,25.3,389c11.7,0,120.6,46.7,237.3,103.1l213.9,103.1l5.8-330.6C8594.9,1975.3,8593,1808.1,8589.1,1786.7z M1497.7,2109.5l223.7-52.5l5.8-392.9c3.9-285.9-1.9-392.9-17.5-392.9c-11.7,0-122.5,23.3-243.1,52.5l-221.7,52.5v394.8c0,217.8,5.8,394.8,15.6,394.8C1268.2,2164,1375.2,2140.7,1497.7,2109.5z M7776.1,1773.1l-5.8-394.8l-194.5-52.5c-107-27.2-214-52.5-237.3-52.5l-44.7-1.9V1670v398.7l44.7,1.9c23.3,0,122.5,21.4,217.8,46.7c97.2,23.3,186.7,44.7,200.3,46.7C7776.1,2165.9,7780,2080.4,7776.1,1773.1z M2378.8,1950.1l169.2-23.3v-396.8v-394.8h-52.5c-31.1,0-132.3,13.6-229.5,29.2c-95.3,15.6-180.9,29.2-188.7,29.2c-9.7,0-15.6,180.9-15.6,400.7v402.6l73.9-11.7C2174.5,1979.2,2283.5,1963.7,2378.8,1950.1z M6963.1,1592.2c0-219.8-5.8-398.7-13.6-398.7c-9.7-1.9-118.6-17.5-243.1-37l-229.5-35v402.6v402.6l200.3,29.2c108.9,17.5,217.8,31.1,243.1,33.1l42.8,1.9V1592.2z M3176.2,1862.5l188.7-11.7v-408.4V1034l-52.5,11.7c-31.1,5.8-140,15.6-243.1,23.3l-190.6,11.7v408.4v408.4l54.5-11.7C2962.3,1880,3071.2,1870.3,3176.2,1862.5z M6146.2,1487.2v-406.5l-188.7-13.6c-105-5.8-213.9-17.5-243.1-21.4l-54.5-11.7v408.4v408.4l219.8,17.5c118.7,11.7,229.5,21.4,243.1,21.4C6140.4,1893.6,6146.2,1800.3,6146.2,1487.2z M4115.6,1815.8h241.2v-412.3V993.1l-208.1,11.7c-112.8,7.8-262.6,13.6-330.6,13.6h-122.5v410.4v412.3l89.5-13.6C3835.6,1821.7,3983.4,1815.8,4115.6,1815.8z M5329.3,1426.9v-408.4h-122.5c-68.1,0-217.8-5.8-330.6-13.6L4668,993.1v410.4v410.4l278.1,7.8c151.7,2,299.5,7.8,330.6,9.7l52.5,3.9V1426.9z M8873.1,1329.6c490.1-124.5,723.5-250.9,686.6-369.6c-64.2-204.2-937.5-488.2-1935.3-630.2c-1130-161.4-2602.4-182.8-3783-58.3c-560.2,58.3-1168.9,165.3-1536.5,270.4c-95.3,27.2-206.2,58.3-243.1,68.1C1937.3,643,1651.3,765.6,1558,825.9c-89.5,58.3-151.7,128.4-132.3,147.8c5.8,3.9,140-17.5,299.5-50.6C3921.1,473.8,7179,646.9,8429.6,1282.9c108.9,54.5,200.3,101.1,206.2,103.1C8641.6,1386,8748.6,1360.7,8873.1,1329.6z M1591,446.6c93.4-46.7,202.3-95.3,243.1-107l72-25.3V-72.7c0-342.3-3.9-387.1-31.1-387.1c-56.4,0-330.6,155.6-398.7,225.6l-66.1,68.1l-5.8,350.1c-1.9,190.6,0,348.2,5.8,348.2C1416,532.2,1497.7,493.3,1591,446.6z M9569.4,170.4v-363.7l-68.1-64.2c-62.2-58.3-221.7-145.9-363.7-200.3l-54.5-21.4v396.8v396.8l112.8,40.8c60.3,23.3,167.3,73.9,237.3,108.9c70,37,128.4,66.1,132.3,68.1C9567.4,532.2,9569.4,368.8,9569.4,170.4z M2470.2,150.9c122.5-27.2,229.5-54.5,237.3-58.3c9.7-5.8,15.6-184.8,15.6-398.7c0-295.6-5.8-387.1-23.3-387.1c-33.1,0-336.5,72-418.2,99.2l-64.2,21.4v387.1c0,212,5.8,387.1,15.6,387.1C2240.7,201.5,2347.7,178.2,2470.2,150.9z M8752.5-185.5v-387.1l-62.2-21.4c-70-21.4-385.1-99.2-408.4-99.2c-9.7,0-15.5,177-15.5,394.8V96.5l210,50.6c114.8,27.2,223.7,50.6,243.1,52.5C8750.5,201.5,8752.5,170.4,8752.5-185.5z M7935.6-358.6v-406.5l-217.8-31.1c-120.6-19.5-231.4-33.1-243.1-33.1c-19.4,0-25.3,93.3-25.3,396.8v398.7l93.3,13.6c110.9,15.6,381.2,60.3,389,64.2C7933.6,44,7935.6-136.9,7935.6-358.6z M3250.1,9c58.3-9.7,145.9-23.3,198.4-31.1l91.4-11.7v-398.7v-396.8l-62.2,2c-35,0-147.8,15.6-249,33l-184.8,33.1l-5.8,394.8l-3.9,392.9h54.5C3119.8,26.5,3191.8,18.7,3250.1,9z M4236.2-101.9l120.6-11.7v-400.7V-913l-208.1,13.6c-332.6,21.4-297.6-31.1-297.6,433.7v398.7l132.3-11.7C4055.3-86.3,4168.1-96.1,4236.2-101.9z M7118.7-467.6c0-313.2-5.8-398.7-25.3-406.5c-15.6-5.8-124.5-15.6-243.1-23.3L6632.4-913v400.7v398.7l151.7,13.6c81.7,5.8,167.3,13.6,188.7,17.5c21.4,3.9,62.2,7.8,93.4,9.7l52.5,1.9V-467.6z M5218.4-148.6h110.9v-398.7V-946h-299.5c-165.3,0-313.1,5.8-330.6,11.7c-27.2,9.7-31.1,64.2-31.1,412.3v398.7l219.8-11.7C5006.4-142.7,5156.2-148.6,5218.4-148.6z M6297.9-531.8l-5.8-404.6l-315.1-5.8l-317-3.9v396.8v398.7l190.6,7.8c103.1,1.9,247,7.8,320.9,9.7l130.3,3.9L6297.9-531.8z M1309-516.2c215.9-161.5,602.9-320.9,1054.2-437.6c1538.5-390.9,3864.7-443.5,5669.6-128.4c122.5,23.3,241.2,44.7,262.6,50.6c37,9.7,37,9.7,1.9-13.6c-66.1-40.9-262.6-112.8-505.7-182.8c-1412.1-410.4-3818-497.9-5628.7-204.2c-795.5,128.4-1509.3,355.9-1670.7,529c-38.9,42.8-52.5,75.9-46.7,126.4c3.9,38.9,149.8,136.1,272.3,182.8c81.7,31.1,441.5,143.9,484.3,151.7C1205.9-440.3,1252.6-475.3,1309-516.2z M842.2-1449.8l72-25.3v-389v-389l-52.5,11.7C764.4-2218,566-2113,496-2046.9l-68.1,64.2v363.7v361.8l171.2-85.6C692.5-1389.5,801.4-1438.1,842.2-1449.8z M8596.9-1611.2v-352l-79.7-73.9c-73.9-68.1-334.5-212-383.2-212c-17.5,0-23.3,103.1-23.3,387.1v387l93.4,33.1c50.6,17.5,157.5,66.1,237.3,107c79.7,40.8,147.8,75.9,151.7,77.8C8594.9-1257.2,8596.9-1416.7,8596.9-1611.2z M1530.8-1650.1l200.3-44.7v-394.8v-396.8l-79.7,13.6c-44.7,7.8-151.7,33.1-239.2,56.4l-157.5,42.8l-5.8,394.8l-3.9,394.8l42.8-11.7C1312.9-1601.5,1421.8-1626.8,1530.8-1650.1z M7776.1-1980.8l-5.8-394.8l-194.5-52.5c-107-27.2-214-52.5-237.3-52.5l-44.7-2v398.7v398.7l44.7,2c23.3,0,122.5,21.4,217.8,46.7c97.2,23.3,186.7,44.7,200.3,46.7C7776.1-1587.9,7780-1673.4,7776.1-1980.8z M2378.8-1803.8l169.2-23.3v-396.8c0-459,35-412.3-284-363.7l-202.3,33v398.7v398.7l73.9-11.7C2174.5-1774.6,2283.5-1790.1,2378.8-1803.8z M6963.1-2161.7c0-219.8-5.8-398.7-13.6-398.7c-9.7,0-93.4-13.6-190.6-29.2c-95.3-15.6-198.4-29.2-227.6-29.2h-54.5v396.8v394.8l200.3,29.2c108.9,17.5,217.8,31.1,243.1,33.1l42.8,1.9V-2161.7z M3185.9-1891.3l178.9-13.6v-406.5c0-379.3-1.9-406.5-33.1-396.8c-19.4,3.9-128.4,13.6-243.1,21.4l-210.1,13.6v408.4v408.4l64.2-9.7C2975.9-1871.8,3086.7-1883.5,3185.9-1891.3z M6146.2-2266.7v-406.5l-188.7-11.7c-105-7.8-213.9-17.5-243.1-23.3l-54.5-11.7v408.4v408.4l210.1,17.5c114.8,11.7,223.7,21.4,243.1,21.4C6144.2-1860.2,6146.2-1891.3,6146.2-2266.7z M4129.2-1938h227.6v-396.8c0-219.8-7.8-402.6-15.6-408.4c-9.7-5.8-157.5-3.9-330.6,1.9l-315.1,11.7v408.4v408.4l103.1-13.6C3853.1-1932.1,4002.8-1938,4129.2-1938z M5329.3-2323.1v-406.5l-313.1-11.7c-173.1-7.8-322.9-7.8-330.6-1.9c-9.7,5.8-17.5,188.6-17.5,406.5v396.8l268.4,7.8c145.9,2,295.6,7.8,330.6,9.7l62.2,3.9V-2323.1z M8884.7-2435.9c163.4-77.8,213.9-136.2,178.9-206.2C8945-2871.6,8025-3149.7,6924.2-3287.8c-519.3-66.1-947.2-93.4-1663-103.1c-1227.3-17.5-2182.3,62.2-3090.6,256.7c-348.2,73.9-832.5,225.6-997.8,309.3c-101.1,50.6-239.2,157.5-239.2,186.7c0,7.8,99.2-13.6,219.8-48.6c1596.8-464.8,4245.9-527.1,6120.8-145.9c538.8,110.9,1036.7,274.2,1264.2,416.2C8663-2338.6,8680.5-2338.6,8884.7-2435.9z M1328.5-3245l72-21.4v-396.8c0-215.9-5.8-394.8-13.6-394.8c-40.8,0-373.4,178.9-414.3,223.7c-48.6,50.6-48.6,58.3-54.5,418.2l-5.8,365.7l171.2-85.6C1176.8-3184.7,1287.6-3233.3,1328.5-3245z M9083.1-3406.4v-357.9l-56.4-64.2c-50.6-58.3-272.3-184.8-385.1-217.8l-44.7-13.6v390.9v392.9l83.6,31.1c60.3,23.3,342.3,161.5,398.7,194.5C9081.2-3048.6,9083.1-3208,9083.1-3406.4z M2005.3-3443.4l202.3-44.8l5.8-402.6c3.9-379.3,1.9-402.6-29.2-392.9c-19.5,5.8-128.4,33-243.1,62.2l-210.1,50.6v398.7c0,381.2,1.9,396.8,37,385.1C1787.5-3392.8,1896.4-3418.1,2005.3-3443.4z M8266.2-3774v-394.9l-110.9-31.1c-62.2-17.5-155.6-40.9-210.1-52.5c-52.5-11.7-112.8-25.3-130.3-31.1c-33.1-9.7-35,17.5-35,389v400.7l54.5,11.7c29.2,5.8,132.3,33.1,227.6,56.4c97.2,25.3,180.9,46.7,190.6,46.7C8260.4-3377.3,8266.2-3556.2,8266.2-3774z M2845.6-3593.1l188.7-25.3V-4023v-406.5l-62.2,9.7c-35,5.8-130.3,19.5-210.1,31.1s-161.4,27.2-178.9,31.1c-31.1,9.7-35,46.7-35,410.4v398.7l54.5-9.7C2631.6-3564,2740.5-3581.5,2845.6-3593.1z M7449.3-3951c0-396.8,0-398.7-42.8-408.4c-50.6-11.7-406.5-68.1-427.9-68.1c-9.7,0-15.6,182.8-15.6,404.6v404.6l219.8,31.1c118.7,15.6,229.5,31.1,243.1,33.1C7443.5-3552.3,7449.3-3643.7,7449.3-3951z M6632.4-4056.1v-406.5l-81.7-11.7c-46.7-5.8-155.6-15.6-243.1-23.3l-161.4-13.6v408.4v408.4l239.2,19.4c130.3,9.7,239.2,19.5,243.1,21.4C6630.5-3651.5,6632.4-3832.4,6632.4-4056.1z M3786.9-3688.5h64.2v-410.4v-410.4l-149.8,11.7c-83.6,7.8-192.5,17.5-243.1,23.3l-93.4,11.7v398.7v400.7l178.9-13.6C3641.1-3682.6,3750-3688.5,3786.9-3688.5z M5805.8-4520.9c-5.8-5.8-149.8-13.6-320.9-19.5l-311.2-9.7v410.4v412.3l317,3.9l315.1,5.8l5.8-396.8C5813.6-4332.2,5811.6-4515.1,5805.8-4520.9z M4839.2-4139.7l3.9-404.6h-227.6c-126.4,0-276.2,5.8-330.6,11.7l-103.1,13.6v396.8v394.8l326.8-3.9l324.8-5.8L4839.2-4139.7z"/></g></g>
</svg>